# xmcd CD database file
#
# Track frame offsets:
#	150
#	14167
#	26327
#	41141
#	54412
#	70735
#	85942
#	97913
#	111018
#	122937
#	143439
#	157637
#	168503
#	181320
#	193022
#	207256
#	218508
#	234017
#	244249
#	260028
#
# Disc length: 3607 seconds
#
# Revision: 2
# Processed by: cddbd v1.5.2PL0 Copyright (c) Steve Scherf et al.
# Submitted via: ACXtractor (MTCDDB.DLL V2003.07.15)
#
DISCID=090e1514
DTITLE=Wayne Horsburgh - Can You Hear Those Pioneers?
DYEAR=2005
DGENRE=Country
TTITLE0=Can you Hear those Pioneers
TTITLE1=Lana
TTITLE2=Walkin' the Floor Over You
TTITLE3=Hoppy Gene and Me
TTITLE4=That Silver Haired Daddy of Mine
TTITLE5=Forever and Ever
TTITLE6=Little Green Valley
TTITLE7=Bouquet of Roses
TTITLE8=Give me a Pinto Pal
TTITLE9=How Great Thou Art
TTITLE10=September Sweet Child
TTITLE11=Marie
TTITLE12=Cuckoo Yodel
TTITLE13=I Remember You
TTITLE14=Christmas Cowboy Song
TTITLE15=Sing a Sad Song
TTITLE16=Rockinover River
TTITLE17=Timber Trail
TTITLE18=Anytime
TTITLE19=Arizona Yodeller
EXTD=ID3G:   2 YEAR: 2005
EXTT0=
EXTT1=
EXTT2=
EXTT3=
EXTT4=
EXTT5=
EXTT6=
EXTT7=
EXTT8=
EXTT9=
EXTT10=
EXTT11=
EXTT12=
EXTT13=
EXTT14=
EXTT15=
EXTT16=
EXTT17=
EXTT18=
EXTT19=
PLAYORDER=
